<?xml version="1.0" standalone="no"?>
<!DOCTYPE svg PUBLIC "-//W3C//DTD SVG 20010904//EN"
 "http://www.w3.org/TR/2001/REC-SVG-20010904/DTD/svg10.dtd">
<svg version="1.0" xmlns="http://www.w3.org/2000/svg"
 width="489.000000pt" height="489.000000pt" viewBox="0 0 489.000000 489.000000"
 preserveAspectRatio="xMidYMid meet">
<metadata>
Created by potrace 1.14, written by Peter Selinger 2001-2017
</metadata>
<g transform="translate(0.000000,489.000000) scale(0.100000,-0.100000)"
fill="#000000" stroke="none">
<path d="M2321 4546 c-46 -13 -107 -73 -123 -121 -11 -33 -14 -236 -16 -1092
-3 -1015 -3 -1054 16 -1095 24 -54 80 -104 133 -118 50 -14 195 -11 229 4 67
30 106 76 123 146 3 14 7 494 8 1066 1 1118 3 1091 -50 1147 -48 52 -97 70
-196 72 -49 1 -105 -3 -124 -9z"/>
<path d="M1728 3085 c-2 -1 -37 -5 -78 -8 -279 -22 -684 -98 -915 -172 -498
-159 -744 -371 -730 -627 11 -214 221 -409 600 -561 149 -60 327 -115 485
-152 62 -14 216 -46 265 -55 33 -5 74 -13 90 -16 17 -3 44 -7 60 -9 17 -2 62
-8 100 -14 39 -5 97 -13 130 -16 81 -9 88 -11 101 -37 15 -32 48 -89 212 -373
79 -137 164 -284 188 -325 52 -91 73 -114 124 -140 73 -37 168 -22 227 37 16
15 74 109 128 208 54 99 106 194 115 210 9 17 60 110 114 208 63 114 103 177
114 178 9 1 26 3 37 4 11 1 54 5 95 9 147 13 185 17 210 21 14 2 45 7 70 10
50 7 63 9 165 26 39 6 79 13 90 14 52 8 272 61 380 91 137 40 264 89 380 147
366 183 492 447 328 690 -85 126 -236 234 -493 351 -241 109 -791 240 -1146
273 -50 4 -68 1 -103 -16 -47 -24 -81 -81 -81 -136 0 -41 39 -105 77 -127 28
-17 55 -23 188 -43 553 -82 1029 -281 1104 -463 70 -170 -266 -365 -824 -476
-44 -9 -98 -18 -120 -21 -22 -3 -51 -7 -65 -10 -28 -5 -93 -14 -160 -20 -25
-3 -63 -7 -85 -10 -233 -27 -933 -28 -1105 -1 -14 3 -61 7 -105 11 -44 4 -89
8 -100 10 -11 2 -41 6 -66 9 -25 4 -57 9 -70 11 -13 2 -40 6 -59 9 -19 3 -46
8 -60 11 -14 2 -61 12 -105 21 -98 19 -273 62 -300 73 -11 4 -58 20 -105 36
-88 28 -112 38 -220 88 -185 86 -295 193 -293 285 2 107 193 238 483 332 68
22 134 42 145 44 11 3 49 11 85 20 36 8 79 17 95 20 17 3 43 8 58 12 16 3 38
7 50 9 72 10 186 27 207 30 14 2 54 7 89 10 95 9 136 35 164 105 16 43 15 69
-7 118 -20 45 -68 80 -118 86 -20 2 -38 3 -40 1z"/>
</g>
</svg>
